# xmcd CD database file
#
# Track frame offsets:
#	150
#	16068
#	46049
#	71254
#	89899
#	110937
#	131413
#	157160
#	170257
#	222447
#
# Disc length: 3203 seconds
#
# Revision: 0
# Processed by: cddbd v1.5.2PL0 Copyright (c) Steve Scherf et al.
# Submitted via: CDex 1.50
#
DISCID=890c810a
DTITLE=New Age Series - Tai Chi
DYEAR=2003
DGENRE=New Age
TTITLE0=Heart beat
TTITLE1=Visiones
TTITLE2=Meridianos
TTITLE3=Latidos de paz
TTITLE4=Recuerdos del mar
TTITLE5=Reflejos
TTITLE6=Party
TTITLE7=Inocencia
TTITLE8=Pacific ocean
TTITLE9=Alpine bells
EXTD=YEAR: 2003
EXTT0=
EXTT1=
EXTT2=
EXTT3=
EXTT4=
EXTT5=
EXTT6=
EXTT7=
EXTT8=
EXTT9=
PLAYORDER=
